<svg width="150.000000" height="30.000000" viewBox="0 0 150 30" fill="none" xmlns="http://www.w3.org/2000/svg" xmlns:xlink="http://www.w3.org/1999/xlink">
	<desc>
			Created with Pixso.
	</desc>
	<defs>
		<clipPath id="clip6_41">
			<rect width="150.000000" height="30.000000" fill="white" fill-opacity="0"/>
		</clipPath>
	</defs>
	<rect width="150.000000" height="30.000000" fill="#FFFFFF" fill-opacity="0"/>
	<g clip-path="url(#clip6_41)">
		<path d="M46 1.5C46 7.46 44 13.5 41 17.4C37 21.5 37 24 25.52 24C14.04 24 14 22.11 9.61 17.4C5.22 12.7 5 7.96 5 2L9 2C9 10.5 12.43 14.58 12.43 14.58C12.43 14.58 15.52 20 25.52 20C35.52 20 38 14.58 38 14.58C38 14.58 41.43 8.5 41.43 1.5L46 1.5Z" fill="#2F2105" fill-opacity="1.000000" fill-rule="nonzero"/>
		<path d="M41.45 9.52C41.86 10.85 42.68 12.02 43.8 12.84C44.92 13.66 46.28 14.1 47.67 14.1C49.06 14.09 50.41 13.63 51.52 12.8C52.63 11.96 53.44 10.79 53.84 9.46C54.23 8.12 54.18 6.7 53.7 5.39C53.21 4.09 52.32 2.98 51.16 2.22C49.99 1.46 48.62 1.1 47.23 1.19C45.84 1.27 44.52 1.81 43.46 2.7L45.61 5.24C46.12 4.81 46.77 4.55 47.44 4.51C48.11 4.47 48.78 4.64 49.34 5.01C49.91 5.38 50.34 5.92 50.57 6.55C50.81 7.18 50.83 7.87 50.64 8.52C50.45 9.16 50.06 9.73 49.52 10.14C48.98 10.54 48.33 10.76 47.65 10.77C46.98 10.77 46.32 10.56 45.78 10.16C45.23 9.76 44.84 9.19 44.64 8.55L41.45 9.52Z" fill="#2F2105" fill-opacity="1.000000" fill-rule="nonzero"/>
		<path d="M39 1.59C39 5.94 37.52 10.11 34.89 13.19C32.27 16.27 28.71 18 25 18C21.28 18 17.72 16.27 15.1 13.19C12.47 10.11 11 5.94 11 1.59C11 1.59 19 5.18 25 1.59C31 -2 39 1.59 39 1.59Z" fill="#FF912B" fill-opacity="1.000000" fill-rule="nonzero"/>
		<path d="M7.24 27L43.75 27C44.44 27 45 27.67 45 28.5C45 29.32 44.44 30 43.75 30L7.24 30C6.55 30 6 29.32 6 28.5C6 27.67 6.55 27 7.24 27Z" fill="#2F2105" fill-opacity="1.000000" fill-rule="evenodd"/>
		<path d="M67.08 21.3C65.63 21.3 64.38 21.04 63.31 20.51C62.24 19.98 61.42 19.22 60.85 18.24C60.28 17.27 60 16.13 60 14.84C60 13.04 60.33 11.45 61 10.06C61.68 8.66 62.59 7.59 63.75 6.83C64.9 6.06 66.18 5.68 67.59 5.68C68.9 5.68 69.9 6.02 70.58 6.71C71.26 7.38 71.6 8.27 71.6 9.38C71.6 10.12 71.46 10.72 71.19 11.17C70.94 11.63 70.57 11.85 70.08 11.85C69.74 11.85 69.48 11.77 69.28 11.61C69.09 11.45 68.99 11.22 68.99 10.92C68.99 10.81 69.02 10.61 69.06 10.31C69.14 9.95 69.17 9.65 69.17 9.43C69.17 8.32 68.58 7.77 67.41 7.77C66.61 7.77 65.84 8.03 65.11 8.55C64.38 9.08 63.79 9.85 63.35 10.88C62.9 11.89 62.67 13.1 62.67 14.51C62.67 15.97 63.08 17.11 63.89 17.91C64.71 18.71 65.91 19.1 67.5 19.1C68.29 19.1 69.08 19 69.88 18.81C70.7 18.6 71.6 18.29 72.58 17.88C72.76 17.8 72.91 17.77 73.03 17.77C73.23 17.77 73.37 17.84 73.47 17.99C73.57 18.13 73.62 18.32 73.62 18.55C73.62 19.3 73.22 19.85 72.41 20.2C71.55 20.58 70.65 20.86 69.72 21.04C68.8 21.21 67.92 21.3 67.08 21.3ZM74.43 21.3C73.67 21.3 73.07 21.03 72.62 20.48C72.18 19.93 71.95 19.21 71.95 18.32C71.95 17.34 72.18 16.42 72.62 15.55C73.07 14.67 73.67 13.97 74.41 13.44C75.16 12.91 75.96 12.64 76.8 12.64C77.06 12.64 77.24 12.69 77.32 12.8C77.42 12.9 77.5 13.08 77.56 13.35C77.81 13.3 78.08 13.28 78.36 13.28C78.96 13.28 79.25 13.49 79.25 13.92C79.25 14.18 79.16 14.79 78.98 15.75C78.7 17.16 78.56 18.13 78.56 18.68C78.56 18.86 78.6 19.01 78.69 19.12C78.79 19.23 78.91 19.29 79.05 19.29C79.28 19.29 79.56 19.14 79.89 18.85C80.22 18.54 80.66 18.05 81.22 17.38C81.37 17.21 81.53 17.12 81.71 17.12C81.87 17.12 81.99 17.2 82.08 17.34C82.17 17.49 82.22 17.69 82.22 17.95C82.22 18.44 82.11 18.82 81.88 19.08C81.38 19.71 80.85 20.23 80.29 20.66C79.73 21.09 79.19 21.3 78.67 21.3C78.27 21.3 77.9 21.17 77.56 20.9C77.23 20.62 76.98 20.24 76.81 19.76C76.18 20.79 75.39 21.3 74.43 21.3ZM75.08 19.45C75.35 19.45 75.61 19.29 75.85 18.97C76.09 18.66 76.27 18.24 76.38 17.71L77.05 14.34C76.54 14.35 76.07 14.55 75.63 14.93C75.2 15.29 74.86 15.78 74.61 16.39C74.35 17 74.23 17.65 74.23 18.33C74.23 18.71 74.3 18.99 74.45 19.18C74.6 19.36 74.82 19.45 75.08 19.45ZM87.83 16.08C88.17 16.08 88.34 16.34 88.34 16.85C88.34 17.81 87.59 18.3 86.08 18.3C85.79 18.3 85.37 18.24 84.83 18.13C84.98 18.89 85.11 19.73 85.21 20.66C85.32 21.57 85.37 22.33 85.37 22.93C85.37 24.25 85.16 25.26 84.73 25.95C84.31 26.65 83.75 27 83.06 27C82.18 27 81.56 26.37 81.18 25.13C80.82 23.88 80.64 22 80.64 19.49C80.64 17.14 80.89 14.77 81.38 12.36C81.89 9.95 82.59 7.95 83.46 6.38C84.35 4.79 85.32 4 86.37 4C86.94 4 87.39 4.25 87.7 4.76C88.03 5.28 88.19 5.97 88.19 6.83C88.19 9.7 86.49 12.83 83.08 16.21C82.96 17.41 82.89 18.46 82.89 19.36C82.89 20.62 82.94 21.9 83.02 23.22C83.11 24.55 83.25 25.22 83.44 25.22C83.81 25.22 83.99 24.58 83.99 23.31C83.99 22.36 83.92 21.44 83.79 20.55C83.67 19.66 83.5 18.72 83.28 17.73C83.27 17.57 83.31 17.37 83.42 17.12C83.54 16.88 83.69 16.67 83.86 16.48C84.03 16.3 84.18 16.21 84.32 16.21C84.56 16.21 84.85 16.22 85.19 16.25C85.3 16.26 85.43 16.26 85.57 16.26C86.06 16.26 86.6 16.22 87.19 16.14C87.29 16.12 87.39 16.11 87.5 16.1C87.61 16.09 87.72 16.08 87.83 16.08ZM85.99 5.81C85.77 5.81 85.5 6.18 85.17 6.92C84.86 7.67 84.54 8.66 84.22 9.89C83.91 11.11 83.64 12.41 83.4 13.77C84.38 12.66 85.12 11.51 85.64 10.31C86.17 9.1 86.43 7.97 86.45 6.92C86.45 6.18 86.29 5.81 85.99 5.81ZM93.49 17.67C93.64 17.67 93.76 17.75 93.85 17.89C93.95 18.04 94 18.24 94 18.5C94 18.94 93.89 19.32 93.69 19.63C93.35 20.16 92.9 20.57 92.34 20.86C91.79 21.15 91.14 21.3 90.37 21.3C89.21 21.3 88.3 20.95 87.66 20.26C87.01 19.55 86.69 18.6 86.69 17.4C86.69 16.56 86.87 15.78 87.22 15.06C87.57 14.32 88.06 13.74 88.68 13.32C89.31 12.89 90.02 12.67 90.81 12.67C91.51 12.67 92.08 12.89 92.5 13.32C92.93 13.73 93.14 14.3 93.14 15.02C93.14 15.86 92.84 16.59 92.23 17.2C91.63 17.8 90.61 18.27 89.17 18.63C89.46 19.19 89.95 19.47 90.64 19.47C91.14 19.47 91.55 19.35 91.86 19.12C92.19 18.89 92.57 18.5 92.99 17.95C93.14 17.77 93.3 17.67 93.49 17.67ZM90.5 14.47C90.05 14.47 89.67 14.73 89.35 15.26C89.05 15.78 88.9 16.42 88.9 17.16L88.9 17.2C89.61 17.03 90.18 16.77 90.59 16.43C91 16.09 91.21 15.69 91.21 15.24C91.21 15.01 91.14 14.82 91.01 14.69C90.89 14.54 90.72 14.47 90.5 14.47Z" fill="#FF912B" fill-opacity="1.000000" fill-rule="nonzero"/>
		<path d="M105.36 21C103.74 21 102.44 20.69 101.46 20.09C100.48 19.47 100 18.53 100 17.27C100 16.61 100.11 16.1 100.34 15.75C100.58 15.4 100.92 15.22 101.37 15.22C101.7 15.22 101.97 15.3 102.17 15.47C102.38 15.64 102.49 15.86 102.49 16.13C102.49 16.37 102.47 16.58 102.43 16.76C102.43 16.81 102.42 16.9 102.39 17.02C102.38 17.14 102.38 17.27 102.38 17.4C102.38 17.94 102.65 18.35 103.2 18.62C103.76 18.88 104.54 19.02 105.54 19.02C106.58 19.02 107.39 18.83 107.98 18.47C108.57 18.1 108.86 17.57 108.86 16.91C108.86 16.5 108.72 16.15 108.46 15.86C108.19 15.55 107.85 15.3 107.45 15.11C107.05 14.91 106.48 14.66 105.75 14.37C104.81 14 104.04 13.66 103.44 13.33C102.85 13 102.35 12.56 101.92 12.01C101.5 11.44 101.3 10.73 101.3 9.9C101.3 9.03 101.53 8.25 101.99 7.57C102.47 6.9 103.15 6.37 104.02 5.99C104.92 5.62 105.96 5.43 107.16 5.43C108.05 5.43 108.86 5.56 109.61 5.83C110.35 6.08 110.95 6.48 111.39 7.01C111.84 7.54 112.06 8.2 112.06 8.97C112.06 9.74 111.95 10.31 111.72 10.7C111.48 11.09 111.14 11.28 110.69 11.28C110.37 11.28 110.1 11.18 109.88 10.99C109.68 10.79 109.57 10.56 109.57 10.3C109.57 10.07 109.59 9.86 109.63 9.66C109.66 9.3 109.68 9.07 109.68 8.97C109.68 8.46 109.43 8.08 108.93 7.81C108.43 7.54 107.81 7.41 107.06 7.41C106.01 7.41 105.21 7.6 104.65 7.99C104.1 8.37 103.82 8.9 103.82 9.59C103.82 10.05 103.96 10.44 104.24 10.77C104.54 11.1 104.9 11.37 105.32 11.59C105.75 11.81 106.35 12.07 107.12 12.37C108.05 12.74 108.79 13.08 109.35 13.39C109.91 13.69 110.39 14.1 110.78 14.62C111.18 15.14 111.39 15.78 111.39 16.55C111.39 17.97 110.84 19.08 109.74 19.85C108.65 20.61 107.19 21 105.36 21ZM120.94 16.8C121.1 16.8 121.22 16.87 121.3 17.02C121.4 17.16 121.45 17.36 121.45 17.62C121.45 18.1 121.33 18.48 121.1 18.74C120.58 19.38 120 19.91 119.38 20.32C118.76 20.73 118.04 20.94 117.24 20.94C114.75 20.94 113.5 19.2 113.5 15.73C113.5 15.2 113.52 14.66 113.56 14.11L112.84 14.11C112.48 14.11 112.23 14.05 112.09 13.91C111.97 13.78 111.91 13.57 111.91 13.28C111.91 12.6 112.18 12.26 112.73 12.26L113.78 12.26C113.98 10.93 114.3 9.71 114.73 8.61C115.16 7.51 115.67 6.63 116.27 5.98C116.88 5.32 117.53 5 118.23 5C118.74 5 119.14 5.22 119.44 5.67C119.73 6.11 119.88 6.68 119.88 7.36C119.88 9.23 119.08 10.87 117.49 12.26L119.55 12.26C119.74 12.26 119.88 12.3 119.97 12.39C120.05 12.47 120.09 12.63 120.09 12.86C120.09 13.69 119.41 14.11 118.03 14.11L115.79 14.11C115.77 14.72 115.75 15.19 115.75 15.53C115.75 16.79 115.9 17.67 116.19 18.18C116.5 18.69 116.98 18.94 117.62 18.94C118.15 18.94 118.61 18.79 119.01 18.47C119.42 18.16 119.89 17.68 120.44 17.05C120.59 16.88 120.75 16.8 120.94 16.8ZM117.73 6.74C117.55 6.74 117.34 6.97 117.11 7.43C116.89 7.88 116.68 8.51 116.47 9.32C116.27 10.12 116.11 11.01 115.97 11.99C116.69 11.37 117.23 10.68 117.59 9.92C117.95 9.14 118.14 8.44 118.14 7.81C118.14 7.1 118 6.74 117.73 6.74ZM121.26 20.94C120.8 20.94 120.47 20.7 120.27 20.21C120.09 19.73 120 18.95 120 17.89C120 16.32 120.22 14.82 120.67 13.4C120.78 13.05 120.96 12.8 121.2 12.64C121.46 12.47 121.81 12.39 122.27 12.39C122.51 12.39 122.68 12.42 122.78 12.48C122.88 12.54 122.93 12.65 122.93 12.82C122.93 13.02 122.83 13.45 122.65 14.13C122.53 14.61 122.43 15.04 122.36 15.4C122.28 15.76 122.22 16.21 122.17 16.75C122.58 15.7 123.03 14.86 123.53 14.2C124.03 13.55 124.52 13.08 124.99 12.8C125.48 12.53 125.93 12.39 126.33 12.39C127.13 12.39 127.52 12.78 127.52 13.57C127.52 13.72 127.47 14.11 127.36 14.71C127.26 15.2 127.21 15.5 127.21 15.62C127.21 16.04 127.36 16.25 127.67 16.25C128.01 16.25 128.45 15.99 128.99 15.46C129.14 15.3 129.31 15.22 129.48 15.22C129.64 15.22 129.76 15.29 129.85 15.44C129.95 15.57 129.99 15.75 129.99 15.98C129.99 16.43 129.87 16.78 129.63 17.04C129.29 17.39 128.88 17.69 128.42 17.94C127.97 18.19 127.49 18.31 126.97 18.31C126.33 18.31 125.83 18.14 125.49 17.82C125.16 17.49 124.99 17.05 124.99 16.49C124.99 16.31 125.01 16.13 125.05 15.95C125.07 15.7 125.09 15.54 125.09 15.46C125.09 15.26 125.02 15.17 124.89 15.17C124.7 15.17 124.46 15.37 124.15 15.78C123.86 16.18 123.57 16.71 123.27 17.38C122.98 18.05 122.74 18.75 122.56 19.49C122.43 20.06 122.27 20.44 122.08 20.65C121.91 20.84 121.64 20.94 121.26 20.94ZM136.46 16.8C136.62 16.8 136.74 16.87 136.83 17.02C136.92 17.16 136.97 17.36 136.97 17.62C136.97 18.1 136.86 18.48 136.62 18.74C136.17 19.29 135.53 19.79 134.7 20.25C133.88 20.71 133 20.94 132.06 20.94C130.78 20.94 129.79 20.6 129.08 19.91C128.37 19.22 128.02 18.27 128.02 17.07C128.02 16.24 128.19 15.46 128.55 14.75C128.9 14.02 129.39 13.45 130.01 13.02C130.65 12.6 131.36 12.39 132.16 12.39C132.86 12.39 133.43 12.6 133.86 13.02C134.29 13.43 134.5 14 134.5 14.71C134.5 15.55 134.2 16.27 133.58 16.87C132.99 17.47 131.97 17.94 130.53 18.29C130.83 18.85 131.41 19.12 132.27 19.12C132.82 19.12 133.44 18.94 134.13 18.56C134.84 18.17 135.45 17.67 135.97 17.05C136.11 16.88 136.28 16.8 136.46 16.8ZM131.85 14.17C131.39 14.17 131.01 14.43 130.69 14.95C130.39 15.47 130.23 16.1 130.23 16.84L130.23 16.87C130.95 16.7 131.52 16.45 131.94 16.11C132.35 15.77 132.56 15.38 132.56 14.93C132.56 14.7 132.49 14.52 132.36 14.38C132.24 14.24 132.06 14.17 131.85 14.17ZM143.65 16.8C143.81 16.8 143.93 16.87 144.02 17.02C144.11 17.16 144.16 17.36 144.16 17.62C144.16 18.1 144.05 18.48 143.81 18.74C143.36 19.29 142.72 19.79 141.89 20.25C141.07 20.71 140.19 20.94 139.25 20.94C137.97 20.94 136.98 20.6 136.27 19.91C135.56 19.22 135.21 18.27 135.21 17.07C135.21 16.24 135.38 15.46 135.74 14.75C136.09 14.02 136.58 13.45 137.2 13.02C137.84 12.6 138.55 12.39 139.35 12.39C140.05 12.39 140.62 12.6 141.05 13.02C141.48 13.43 141.69 14 141.69 14.71C141.69 15.55 141.38 16.27 140.77 16.87C140.17 17.47 139.16 17.94 137.72 18.29C138.02 18.85 138.6 19.12 139.46 19.12C140 19.12 140.63 18.94 141.32 18.56C142.03 18.17 142.64 17.67 143.15 17.05C143.3 16.88 143.47 16.8 143.65 16.8ZM139.03 14.17C138.58 14.17 138.2 14.43 137.88 14.95C137.58 15.47 137.42 16.1 137.42 16.84L137.42 16.87C138.14 16.7 138.71 16.45 139.13 16.11C139.54 15.77 139.75 15.38 139.75 14.93C139.75 14.7 139.68 14.52 139.55 14.38C139.42 14.24 139.25 14.17 139.03 14.17ZM145.69 14.11C145.67 14.72 145.66 15.19 145.66 15.53C145.66 16.4 145.7 17.08 145.78 17.58C145.88 18.07 146.03 18.42 146.24 18.63C146.46 18.84 146.76 18.94 147.14 18.94C147.33 18.94 147.57 18.88 147.83 18.76C148.1 18.64 148.35 18.48 148.57 18.29C148.7 18.17 148.84 18.11 148.97 18.11C149.12 18.11 149.23 18.19 149.32 18.36C149.42 18.52 149.46 18.71 149.46 18.94C149.46 19.17 149.42 19.4 149.32 19.61C149.23 19.83 149.1 20.01 148.92 20.16C148.28 20.68 147.56 20.94 146.75 20.94C145.59 20.94 144.75 20.46 144.21 19.51C143.67 18.54 143.4 17.28 143.4 15.73C143.4 15.2 143.42 14.66 143.46 14.11L142.74 14.11C142.38 14.11 142.13 14.05 141.99 13.91C141.87 13.78 141.81 13.57 141.81 13.28C141.81 12.6 142.08 12.26 142.63 12.26L143.68 12.26C143.89 10.93 144.2 9.71 144.63 8.61C145.06 7.51 145.57 6.63 146.17 5.98C146.78 5.32 147.43 5 148.13 5C148.64 5 149.04 5.22 149.34 5.67C149.63 6.11 149.78 6.68 149.78 7.36C149.78 9.23 148.98 10.87 147.39 12.26L149.45 12.26C149.64 12.26 149.78 12.3 149.87 12.39C149.95 12.47 150 12.63 150 12.86C150 13.69 149.31 14.11 147.93 14.11L145.69 14.11ZM147.63 6.74C147.45 6.74 147.24 6.97 147.01 7.43C146.79 7.88 146.58 8.51 146.37 9.32C146.17 10.12 146.01 11.01 145.88 11.99C146.6 11.37 147.13 10.68 147.49 9.92C147.85 9.14 148.04 8.44 148.04 7.81C148.04 7.1 147.9 6.74 147.63 6.74Z" fill="#2F2105" fill-opacity="1.000000" fill-rule="nonzero"/>
	</g>
</svg>
