<svg width="59.255981" height="48.000000" viewBox="0 0 59.256 48" fill="none" xmlns="http://www.w3.org/2000/svg" xmlns:xlink="http://www.w3.org/1999/xlink">
	<desc>
			Created with Pixso.
	</desc>
	<defs/>
	<rect width="49.102074" height="30.000000" transform="translate(5.000000 0.000000)" fill="#FFFFFF" fill-opacity="0"/>
	<path d="M46 1.5C46 7.46 44 13.5 41 17.4C37 21.5 37 24 25.52 24C14.04 24 14 22.11 9.61 17.4C5.22 12.7 5 7.96 5 2L9 2C9 10.5 12.43 14.58 12.43 14.58C12.43 14.58 15.52 20 25.52 20C35.52 20 38 14.58 38 14.58C38 14.58 41.43 8.5 41.43 1.5L46 1.5Z" fill="#2F2105" fill-opacity="1.000000" fill-rule="nonzero"/>
	<path d="M41.45 9.52C41.94 11.11 42.98 12.37 44.3 13.17C45.71 14.02 47.33 14.27 48.84 13.98C50.47 13.67 51.84 12.78 52.77 11.55C53.78 10.24 54.2 8.65 54.07 7.12C53.94 5.47 53.2 4.01 52.08 2.95C50.88 1.81 49.36 1.22 47.82 1.18C46.16 1.13 44.63 1.71 43.46 2.7L45.61 5.24C46.22 4.72 46.98 4.48 47.72 4.5C48.53 4.53 49.25 4.85 49.79 5.36C50.38 5.92 50.7 6.64 50.76 7.39C50.82 8.19 50.58 8.94 50.13 9.53C49.64 10.17 48.95 10.57 48.22 10.71C47.43 10.86 46.65 10.7 46.02 10.32C45.33 9.9 44.86 9.26 44.64 8.55L41.45 9.52Z" fill="#2F2105" fill-opacity="1.000000" fill-rule="evenodd"/>
	<path d="M39 1.59C39 5.94 37.52 10.11 34.89 13.19C32.27 16.27 28.71 18 25 18C21.28 18 17.72 16.27 15.1 13.19C12.47 10.11 11 5.94 11 1.59C11 1.59 19 5.18 25 1.59C31 -2 39 1.59 39 1.59Z" fill="#F4AE26" fill-opacity="1.000000" fill-rule="nonzero"/>
	<rect x="6.000000" y="27.000000" rx="1.500000" width="47.000000" height="3.000000" fill="#2F2105" fill-opacity="1.000000"/>
	<path d="" fill="#000000" fill-opacity="1.000000" fill-rule="evenodd"/>
	<path d="M39.59 41.81Q39.62 40.37 40.03 39.08Q40.13 38.75 40.35 38.59Q40.36 38.58 40.38 38.57Q40.63 38.4 41.07 38.4Q41.31 38.4 41.41 38.46Q41.42 38.47 41.43 38.48Q41.5 38.54 41.5 38.69Q41.5 38.88 41.32 39.55Q41.2 40.03 41.13 40.39Q41.06 40.75 41.01 41.28Q41.41 40.25 41.9 39.6Q42.39 38.96 42.86 38.68Q43.34 38.4 43.74 38.4Q44.12 38.4 44.32 38.6Q44.51 38.79 44.51 39.18Q44.51 39.34 44.41 39.94Q44.31 40.42 44.31 40.54Q44.31 40.82 44.44 40.91Q44.51 40.96 44.61 40.96Q44.74 40.96 44.89 40.89Q44.93 40.62 45.02 40.37Q45.09 40.16 45.19 39.96Q45.44 39.43 45.84 39.07Q45.99 38.94 46.15 38.82Q46.39 38.66 46.65 38.56Q47.07 38.4 47.55 38.4Q48.08 38.4 48.46 38.65Q48.57 38.72 48.66 38.82Q48.75 38.91 48.82 39Q49.09 39.38 49.09 39.94Q49.09 40.33 48.96 40.67Q48.81 41.05 48.49 41.36Q47.9 41.96 46.48 42.3Q46.56 42.44 46.66 42.54Q46.99 42.86 47.62 42.86Q48.16 42.86 48.85 42.48Q49.17 42.31 49.44 42.08Q49.52 42.03 49.58 41.97Q49.55 41.74 49.55 41.5Q49.55 40.9 49.73 40.37Q49.8 40.16 49.9 39.96Q50.16 39.43 50.56 39.07Q50.71 38.94 50.87 38.82Q51.11 38.66 51.37 38.56Q51.79 38.4 52.27 38.4Q52.8 38.4 53.17 38.65Q53.28 38.72 53.38 38.82Q53.47 38.91 53.54 39Q53.8 39.38 53.8 39.94Q53.8 40.33 53.67 40.67Q53.52 41.05 53.21 41.36Q52.62 41.96 51.2 42.3Q51.27 42.44 51.38 42.54Q51.7 42.86 52.34 42.86Q52.88 42.86 53.57 42.48Q53.88 42.31 54.16 42.08Q54.49 41.82 54.76 41.49Q54.86 41.38 54.96 41.34Q54.93 40.99 54.93 40.61Q54.93 40.08 54.97 39.54L54.5 39.54Q54.14 39.54 54.01 39.41Q53.89 39.28 53.89 38.99Q53.89 38.58 54.09 38.42Q54.21 38.32 54.43 38.32L55.11 38.32Q55.32 37 55.74 35.91Q56.15 34.82 56.75 34.17Q57.26 33.61 57.84 33.53Q57.93 33.52 58.03 33.52Q58.25 33.52 58.43 33.61Q58.66 33.72 58.82 33.96Q59.11 34.41 59.11 35.08Q59.11 35.7 58.93 36.27Q58.58 37.4 57.55 38.32L58.89 38.32Q59.08 38.32 59.17 38.41Q59.25 38.49 59.25 38.72Q59.25 38.94 59.15 39.1Q58.88 39.54 57.89 39.54L56.43 39.54Q56.41 40.14 56.41 40.48Q56.41 41.34 56.5 41.83Q56.59 42.32 56.8 42.53Q56.82 42.56 56.86 42.58Q57.06 42.74 57.38 42.74Q57.57 42.74 57.84 42.62Q57.96 42.56 58.07 42.49Q58.2 42.4 58.32 42.3Q58.45 42.18 58.58 42.18Q58.62 42.18 58.65 42.2Q58.75 42.23 58.81 42.35Q58.9 42.51 58.9 42.74Q58.9 42.81 58.89 42.88Q58.87 43.03 58.81 43.18Q58.77 43.29 58.7 43.38Q58.63 43.47 58.54 43.54Q58.2 43.82 57.8 43.95Q57.48 44.05 57.13 44.05Q56.51 44.05 56.07 43.77Q55.7 43.54 55.46 43.1Q55.32 42.86 55.22 42.57Q55.21 42.59 55.19 42.6Q54.75 43.14 53.94 43.6Q53.53 43.83 53.09 43.94Q52.66 44.05 52.21 44.05Q51.06 44.05 50.39 43.49Q50.31 43.44 50.25 43.37Q50.12 43.25 50.02 43.1Q50.01 43.09 50 43.08Q49.67 43.35 49.22 43.6Q48.81 43.83 48.37 43.94Q47.95 44.05 47.49 44.05Q46.35 44.05 45.67 43.49Q45.6 43.44 45.53 43.37Q45.4 43.25 45.3 43.1Q45.01 42.7 44.9 42.17Q44.74 42.24 44.57 42.27Q44.37 42.32 44.15 42.32Q43.53 42.32 43.2 42.01Q43.2 42 43.19 41.99Q43.12 41.92 43.06 41.84Q42.86 41.55 42.86 41.12Q42.86 40.94 42.89 40.75Q42.92 40.51 42.92 40.43Q42.92 40.3 42.86 40.26Q42.83 40.24 42.79 40.24Q42.61 40.24 42.31 40.64Q42.02 41.04 41.73 41.7Q41.44 42.36 41.26 43.1Q41.13 43.66 40.95 43.86Q40.95 43.87 40.94 43.88Q40.76 44.05 40.41 44.05Q40.23 44.05 40.09 43.98Q39.88 43.86 39.77 43.58Q39.72 43.44 39.68 43.26Q39.44 43.47 39.17 43.65Q39 43.76 38.81 43.85Q38.34 44.05 37.77 44.05Q36.95 44.05 36.4 43.66Q35.32 42.9 35.32 40.61Q35.32 40.08 35.36 39.54L34.89 39.54Q34.53 39.54 34.4 39.41Q34.28 39.28 34.28 38.99Q34.28 38.58 34.48 38.42Q34.61 38.32 34.82 38.32L35.5 38.32Q35.71 37 36.13 35.91Q36.55 34.82 37.14 34.17Q37.65 33.61 38.23 33.53Q38.32 33.52 38.42 33.52Q38.64 33.52 38.82 33.61Q39.05 33.72 39.21 33.96Q39.5 34.41 39.5 35.08Q39.5 35.7 39.32 36.27Q38.98 37.4 37.94 38.32L39.28 38.32Q39.48 38.32 39.56 38.41Q39.64 38.49 39.64 38.72Q39.64 38.94 39.54 39.1Q39.28 39.54 38.29 39.54L36.82 39.54Q36.8 40.14 36.8 40.48Q36.8 41.73 37.09 42.23Q37.21 42.44 37.4 42.56Q37.65 42.74 38.02 42.74Q38.31 42.74 38.56 42.64Q38.76 42.56 38.93 42.42Q39.22 42.2 39.59 41.81ZM27.44 43.49Q28.4 44.09 29.99 44.09Q31.8 44.09 32.87 43.33Q33.31 43.02 33.57 42.59Q33.94 41.98 33.94 41.15Q33.94 40.5 33.65 40.02Q33.61 39.95 33.55 39.88Q33.3 39.54 32.98 39.3Q32.81 39.17 32.61 39.06Q32.06 38.76 31.15 38.39Q30.39 38.09 29.97 37.87Q29.55 37.66 29.27 37.34Q29.16 37.21 29.1 37.07Q28.99 36.84 28.99 36.55Q28.99 36.19 29.14 35.91Q29.28 35.67 29.53 35.49Q30.08 35.12 31.11 35.12Q31.84 35.12 32.33 35.38Q32.63 35.54 32.75 35.78Q32.83 35.94 32.83 36.15Q32.83 36.24 32.79 36.6Q32.75 36.79 32.75 37.02Q32.75 37.12 32.78 37.21Q32.83 37.36 32.96 37.48Q33.03 37.54 33.11 37.58Q33.28 37.67 33.49 37.67Q33.71 37.67 33.88 37.58Q34.04 37.48 34.16 37.29Q34.39 36.9 34.39 36.15Q34.39 35.58 34.15 35.15Q34.07 34.99 33.95 34.85Q33.91 34.81 33.88 34.77Q33.45 34.3 32.78 34.07Q32.05 33.81 31.17 33.81Q29.99 33.81 29.12 34.18Q28.31 34.53 27.85 35.14Q27.82 35.18 27.79 35.22Q27.64 35.44 27.54 35.69Q27.33 36.18 27.33 36.76Q27.33 37.52 27.68 38.05Q27.71 38.1 27.74 38.15Q28.06 38.57 28.46 38.85Q28.6 38.95 28.74 39.03Q29.32 39.35 30.25 39.71Q30.97 40 31.36 40.2Q31.76 40.39 32.02 40.69Q32.14 40.82 32.2 40.97Q32.29 41.16 32.29 41.39Q32.29 41.69 32.17 41.94Q32.02 42.22 31.71 42.42Q31.14 42.78 30.11 42.78Q29.13 42.78 28.58 42.52Q28.26 42.36 28.13 42.1Q28.04 41.93 28.04 41.72Q28.04 41.58 28.06 41.46Q28.07 41.34 28.07 41.29Q28.11 41.12 28.11 40.87Q28.11 40.74 28.06 40.64Q28.01 40.53 27.91 40.44Q27.89 40.43 27.87 40.41Q27.67 40.27 27.38 40.27Q27.13 40.27 26.95 40.39Q26.81 40.47 26.71 40.62Q26.48 40.97 26.48 41.63Q26.48 42.38 26.82 42.9Q27.05 43.24 27.44 43.49ZM37.69 35.12Q37.91 34.67 38.1 34.67Q38.13 34.67 38.16 34.68Q38.36 34.76 38.36 35.38Q38.36 36 38.01 36.76Q37.65 37.53 36.94 38.14Q37.07 37.17 37.27 36.37Q37.47 35.57 37.69 35.12ZM57.3 35.12Q57.52 34.67 57.7 34.67Q57.74 34.67 57.76 34.68Q57.97 34.76 57.97 35.38Q57.97 36 57.61 36.76Q57.26 37.53 56.55 38.14Q56.68 37.17 56.88 36.37Q57.08 35.57 57.3 35.12ZM47.17 39.6Q47.25 39.58 47.35 39.58Q47.5 39.58 47.61 39.65Q47.65 39.68 47.69 39.72Q47.71 39.74 47.72 39.76Q47.82 39.89 47.82 40.08Q47.82 40.2 47.79 40.31Q47.71 40.61 47.4 40.86Q47 41.2 46.29 41.37L46.29 41.34Q46.29 40.61 46.6 40.1Q46.84 39.69 47.17 39.6ZM51.88 39.6Q51.97 39.58 52.06 39.58Q52.22 39.58 52.33 39.65Q52.37 39.68 52.41 39.72Q52.42 39.74 52.44 39.76Q52.53 39.89 52.53 40.08Q52.53 40.2 52.5 40.31Q52.42 40.61 52.12 40.86Q51.71 41.2 51.01 41.37L51.01 41.34Q51.01 40.61 51.31 40.1Q51.56 39.69 51.88 39.6Z" fill="#2F2105" fill-opacity="1.000000" fill-rule="evenodd"/>
	<path d="M18.44 40.7Q18.48 40.53 18.53 40.37Q18.6 40.16 18.7 39.96Q18.96 39.43 19.36 39.07Q19.51 38.94 19.67 38.82Q19.91 38.66 20.17 38.56Q20.59 38.4 21.07 38.4Q21.6 38.4 21.97 38.65Q22.08 38.72 22.18 38.82Q22.27 38.91 22.34 39Q22.6 39.38 22.6 39.94Q22.6 40.33 22.47 40.67Q22.32 41.05 22.01 41.36Q21.42 41.96 19.99 42.3Q20.11 42.53 20.3 42.67Q20.56 42.86 20.96 42.86Q21.45 42.86 21.77 42.63Q22.09 42.4 22.51 41.86Q22.63 41.71 22.77 41.68Q22.8 41.68 22.83 41.68Q22.89 41.68 22.94 41.7Q23.02 41.73 23.08 41.82Q23.17 41.97 23.17 42.22Q23.17 42.61 23 42.9Q22.98 42.93 22.96 42.96Q22.79 43.22 22.57 43.42Q22.35 43.62 22.08 43.77Q21.54 44.05 20.78 44.05Q19.85 44.05 19.26 43.61Q19.11 43.5 18.99 43.37Q18.92 43.29 18.86 43.21Q18.5 42.73 18.4 42.06Q18.2 42.09 17.96 42.09Q17.67 42.09 17.13 41.98Q17.29 42.72 17.39 43.63Q17.49 44.53 17.49 45.12Q17.49 46.42 17.07 47.1Q16.79 47.56 16.39 47.71Q16.2 47.79 15.97 47.79Q15.75 47.79 15.57 47.71Q15.01 47.48 14.74 46.56Q14.42 45.49 14.38 43.45Q14.26 43.54 14.14 43.63Q13.59 44.05 13.08 44.05Q12.94 44.05 12.82 44.02Q12.57 43.96 12.35 43.78Q12.35 43.78 12.34 43.78Q12.02 43.51 11.85 43.05Q11.4 43.78 10.78 43.98Q10.54 44.05 10.28 44.05Q9.84 44.05 9.51 43.87Q9.27 43.74 9.09 43.51Q9.07 43.49 9.05 43.46Q9 43.4 8.96 43.33Q8.95 43.33 8.95 43.34Q8.63 43.48 8.3 43.59Q7.75 43.77 7.18 43.88Q6.26 44.05 5.43 44.05Q4 44.05 2.95 43.53Q2.24 43.18 1.75 42.64Q1.51 42.37 1.33 42.05Q1.3 42.01 1.28 41.97Q0.76 41.04 0.76 39.82Q0.76 38.05 1.43 36.69Q2.01 35.49 2.96 34.76Q3.1 34.66 3.24 34.57Q3.74 34.24 4.29 34.06Q4.99 33.82 5.77 33.82Q7.03 33.82 7.7 34.45Q7.72 34.47 7.74 34.49Q7.91 34.66 8.04 34.86Q8.41 35.44 8.41 36.24Q8.41 36.98 8.15 37.42Q8 37.67 7.79 37.78Q7.62 37.86 7.41 37.86Q7.08 37.86 6.88 37.71Q6.84 37.67 6.8 37.62Q6.69 37.47 6.69 37.25Q6.69 37.14 6.74 36.86Q6.81 36.5 6.81 36.28Q6.81 35.77 6.56 35.5Q6.27 35.19 5.65 35.19Q5.48 35.19 5.32 35.21Q4.71 35.29 4.13 35.7Q3.41 36.22 2.97 37.22Q2.53 38.22 2.53 39.6Q2.53 40.86 3.14 41.63Q3.23 41.73 3.33 41.83Q4.13 42.62 5.71 42.62Q6.49 42.62 7.28 42.42Q7.91 42.26 8.65 41.98Q8.66 41.58 8.75 41.2Q8.86 40.73 9.09 40.28Q9.44 39.6 9.98 39.13Q10.12 39.01 10.27 38.9Q10.81 38.52 11.4 38.42Q11.62 38.38 11.84 38.38Q12.1 38.38 12.19 38.48Q12.28 38.58 12.34 38.85Q12.6 38.8 12.87 38.8Q13.26 38.8 13.39 38.98Q13.46 39.08 13.46 39.22Q13.46 39.47 13.28 40.42Q13 41.8 13 42.34Q13 42.51 13.08 42.62Q13.09 42.62 13.09 42.63Q13.14 42.68 13.19 42.71Q13.25 42.74 13.33 42.74Q13.56 42.74 13.88 42.44Q14.09 42.25 14.39 41.91Q14.47 40.07 14.87 38.19Q15.37 35.82 16.24 34.27Q17.04 32.83 18 32.72Q18.07 32.72 18.15 32.72Q18.4 32.72 18.6 32.82Q18.86 32.94 19.03 33.22Q19.35 33.72 19.35 34.58Q19.35 37.39 15.98 40.72Q15.86 41.89 15.86 42.78Q15.86 44.02 15.94 45.32Q16.03 46.61 16.21 46.62L16.22 46.62Q16.25 46.62 16.27 46.62Q16.58 46.53 16.58 45.37Q16.58 44.44 16.45 43.56Q16.33 42.69 16.11 41.72Q16.1 41.56 16.21 41.32Q16.33 41.08 16.5 40.9Q16.66 40.72 16.79 40.72Q17.03 40.72 17.37 40.74Q17.48 40.75 17.62 40.75Q18 40.75 18.44 40.7ZM17.36 34.63Q17.68 33.9 17.9 33.9Q17.94 33.9 17.98 33.92Q18.2 34.01 18.2 34.63Q18.19 35.67 17.67 36.85Q17.15 38.03 16.2 39.12Q16.42 37.78 16.73 36.57Q17.05 35.37 17.36 34.63ZM10.74 42.84Q10.73 42.84 10.71 42.84Q10.54 42.84 10.41 42.77Q10.35 42.73 10.3 42.66Q10.15 42.48 10.15 42.11Q10.15 41.65 10.27 41.22Q10.32 41.03 10.4 40.84Q10.65 40.24 11.07 39.87Q11.39 39.6 11.75 39.53Q11.88 39.5 12.01 39.5L11.56 41.7Q11.46 42.22 11.22 42.53Q10.99 42.82 10.74 42.84ZM20.68 39.6Q20.77 39.58 20.86 39.58Q21.02 39.58 21.13 39.65Q21.17 39.68 21.21 39.72Q21.22 39.74 21.24 39.76Q21.33 39.89 21.33 40.08Q21.33 40.2 21.3 40.31Q21.22 40.61 20.92 40.86Q20.51 41.2 19.81 41.37L19.81 41.34Q19.81 40.61 20.11 40.1Q20.36 39.69 20.68 39.6Z" fill="#F4AE26" fill-opacity="1.000000" fill-rule="evenodd"/>
</svg>
