<svg width="21.037565" height="21.029303" viewBox="0 0 21.0376 21.0293" fill="none" xmlns="http://www.w3.org/2000/svg" xmlns:xlink="http://www.w3.org/1999/xlink">
	<desc>
			Created with Pixso.
	</desc>
	<defs/>
	<path id="Vector" d="M9.59 1.13C9.91 0.28 11.12 0.28 11.44 1.13L13.51 6.86C13.58 7.05 13.71 7.21 13.87 7.32C14.04 7.44 14.24 7.5 14.44 7.5L19.52 7.5C20.46 7.5 20.87 8.67 20.13 9.24L16.51 12.5C16.35 12.62 16.23 12.79 16.18 12.99C16.12 13.18 16.12 13.39 16.19 13.59L17.51 19.19C17.84 20.09 16.79 20.86 16.01 20.31L11.09 17.19C10.92 17.07 10.72 17.01 10.51 17.01C10.31 17.01 10.11 17.07 9.94 17.19L5.02 20.31C4.23 20.86 3.19 20.09 3.51 19.19L4.84 13.59C4.9 13.39 4.91 13.18 4.85 12.99C4.79 12.79 4.68 12.62 4.51 12.5L0.89 9.24C0.15 8.67 0.57 7.5 1.5 7.5L6.59 7.5C6.79 7.5 6.99 7.44 7.15 7.32C7.32 7.21 7.44 7.05 7.52 6.86L9.59 1.13L9.59 1.13Z" fill="#FFD057" fill-opacity="1.000000" fill-rule="nonzero"/>
	<path id="Vector" d="M11.44 1.13L13.51 6.86C13.58 7.05 13.71 7.21 13.87 7.32C14.04 7.44 14.24 7.5 14.44 7.5L19.52 7.5C20.46 7.5 20.87 8.67 20.13 9.24L16.51 12.5C16.35 12.62 16.23 12.79 16.18 12.99C16.12 13.18 16.12 13.39 16.19 13.59L17.51 19.19C17.84 20.09 16.79 20.86 16.01 20.31L11.09 17.19C10.92 17.07 10.72 17.01 10.51 17.01C10.31 17.01 10.11 17.07 9.94 17.19L5.02 20.31C4.23 20.86 3.19 20.09 3.51 19.19L4.84 13.59C4.9 13.39 4.91 13.18 4.85 12.99C4.79 12.79 4.68 12.62 4.51 12.5L0.89 9.24C0.15 8.67 0.57 7.5 1.5 7.5L6.59 7.5C6.79 7.5 6.99 7.44 7.15 7.32C7.32 7.21 7.44 7.05 7.52 6.86L9.59 1.13L9.59 1.13C9.91 0.28 11.12 0.28 11.44 1.13Z" stroke="#FFD057" stroke-opacity="1.000000" stroke-width="1.000000" stroke-linejoin="round"/>
</svg>
