<svg width="27.053705" height="26.000000" viewBox="0 0 27.0537 26" fill="none" xmlns="http://www.w3.org/2000/svg" xmlns:xlink="http://www.w3.org/1999/xlink">
	<defs/>
	<path id="Vector" d="M23.38 6.33C23.75 6.33 24.12 6.41 24.46 6.56C24.8 6.71 25.11 6.93 25.36 7.21C25.61 7.48 25.8 7.81 25.91 8.16C26.03 8.52 26.07 8.89 26.04 9.26L25.24 17.26C25.17 17.92 24.86 18.53 24.37 18.97C23.88 19.42 23.24 19.66 22.58 19.66L9.85 19.66C9.23 19.66 8.63 19.45 8.16 19.06C7.68 18.67 7.35 18.12 7.23 17.52L5 6.33L23.38 6.33Z" stroke="#1D1D1D" stroke-opacity="1.000000" stroke-width="2.000000" stroke-linejoin="round"/>
	<path id="Vector" d="M3.92 2C3.84 1.72 3.68 1.46 3.44 1.28C3.21 1.09 2.92 1 2.62 1L1 1L5 6.33L3.92 2ZM11.66 25L9 25L11.66 25ZM19.66 25L22.33 25" stroke="#1D1D1D" stroke-opacity="1.000000" stroke-width="2.000000" stroke-linejoin="round" stroke-linecap="round"/>
</svg>
