<svg width="434.259552" height="251.664124" viewBox="0 0 434.26 251.664" fill="none" xmlns="http://www.w3.org/2000/svg" xmlns:xlink="http://www.w3.org/1999/xlink">
	<desc>
			Created with Pixso.
	</desc>
	<defs/>
	<g opacity="0.100000">
		<path id="Exclude" d="M264.432 110.691C287.652 84.8821 300.696 49.8785 300.696 13.3797C300.696 13.3797 229.944 -16.7247 176.88 13.3797C123.816 43.484 53.0641 13.3797 53.0641 13.3797C53.0641 49.8785 66.109 84.8821 89.329 110.691C112.549 136.499 144.042 150.998 176.88 150.998C209.718 150.998 241.212 136.499 264.432 110.691ZM318.385 146.048C327.444 134.849 335.473 121.573 342.118 106.951C342.484 107.221 342.854 107.486 343.228 107.747C353.129 114.66 365.117 118.361 377.411 118.299C389.705 118.237 401.651 114.416 411.475 107.404C421.298 100.391 428.476 90.5605 431.942 79.3719C435.408 68.1831 434.977 56.2324 430.714 45.294C426.451 34.3557 418.584 25.0128 408.278 18.6525C397.973 12.2923 385.78 9.25372 373.51 9.98783C368.642 10.2791 363.865 11.158 359.287 12.5832L322.206 12.5832C322.206 71.3048 291.853 122.337 291.853 122.337C291.853 122.337 269.939 167.799 181.499 167.799C93.0585 167.799 65.7888 122.337 65.7888 122.337C65.7888 122.337 35.3761 88.0824 35.3761 16.7776L0 16.7776C0 66.8367 1.98663 106.577 40.7914 146.048C79.5961 185.519 79.9888 201.331 181.499 201.331C283.008 201.331 283.008 180.359 318.385 146.048ZM375.364 37.8575C369.962 38.1807 364.791 39.996 360.481 43.0629C358.872 54.7198 356.383 66.2001 353.129 77.2643C355.029 80.3748 357.593 83.1017 360.681 85.258C365.482 88.6102 371.294 90.4045 377.256 90.3743C383.216 90.3441 389.008 88.4919 393.772 85.091C398.534 81.6913 402.014 76.9248 403.696 71.4997C405.376 66.0746 405.167 60.2801 403.1 54.9764C401.034 49.6727 397.218 45.1426 392.221 42.0587C387.225 38.9748 381.313 37.5015 375.364 37.8575ZM19.8519 226.498L342.753 226.498C348.832 226.498 353.761 232.131 353.761 239.081C353.761 246.03 348.832 251.664 342.753 251.664L19.8519 251.664C13.7724 251.664 8.84396 246.03 8.84396 239.081C8.84396 232.131 13.7724 226.498 19.8519 226.498Z" clip-rule="evenodd" fill="#F9D9AA" fill-opacity="1.000000" fill-rule="evenodd"/>
	</g>
</svg>
