<svg width="12.669434" height="12.666931" viewBox="0 0 12.6694 12.6669" fill="none" xmlns="http://www.w3.org/2000/svg" xmlns:xlink="http://www.w3.org/1999/xlink">
	<desc>
			Created with Pixso.
	</desc>
	<defs/>
	<path id="Vector" d="M5.79 0.86C5.98 0.37 6.68 0.37 6.87 0.86L8.08 4.21C8.12 4.32 8.19 4.41 8.29 4.48C8.39 4.54 8.5 4.58 8.62 4.58L11.59 4.58C12.13 4.58 12.37 5.26 11.94 5.6L9.83 7.5C9.74 7.57 9.67 7.67 9.63 7.78C9.6 7.9 9.6 8.02 9.64 8.13L10.41 11.4C10.6 11.93 9.99 12.38 9.53 12.05L6.67 10.23C6.57 10.16 6.45 10.13 6.33 10.13C6.21 10.13 6.09 10.16 5.99 10.23L3.13 12.05C2.67 12.38 2.06 11.92 2.25 11.4L3.02 8.13C3.06 8.02 3.06 7.9 3.03 7.78C2.99 7.67 2.92 7.57 2.83 7.5L0.72 5.6C0.29 5.26 0.53 4.58 1.07 4.58L4.04 4.58C4.16 4.58 4.27 4.54 4.37 4.48C4.47 4.41 4.54 4.32 4.58 4.21L5.79 0.86L5.79 0.86Z" fill="#FFD057" fill-opacity="1.000000" fill-rule="nonzero"/>
	<path id="Vector" d="M6.87 0.86L8.08 4.21C8.12 4.32 8.19 4.41 8.29 4.48C8.39 4.54 8.5 4.58 8.62 4.58L11.59 4.58C12.13 4.58 12.37 5.26 11.94 5.6L9.83 7.5C9.74 7.57 9.67 7.67 9.63 7.78C9.6 7.9 9.6 8.02 9.64 8.13L10.41 11.4C10.6 11.93 9.99 12.38 9.53 12.05L6.67 10.23C6.57 10.16 6.45 10.13 6.33 10.13C6.21 10.13 6.09 10.16 5.99 10.23L3.13 12.05C2.67 12.38 2.06 11.92 2.25 11.4L3.02 8.13C3.06 8.02 3.06 7.9 3.03 7.78C2.99 7.67 2.92 7.57 2.83 7.5L0.72 5.6C0.29 5.26 0.53 4.58 1.07 4.58L4.04 4.58C4.16 4.58 4.27 4.54 4.37 4.48C4.47 4.41 4.54 4.32 4.58 4.21L5.79 0.86L5.79 0.86C5.98 0.37 6.68 0.37 6.87 0.86Z" stroke="#FFD057" stroke-opacity="1.000000" stroke-width="1.000000" stroke-linejoin="round"/>
</svg>
